<mxfile host="bzea">
  <diagram id="5Vk" name="Normal">
    <mxGraphModel dx="800" dy="583" background="#FFFACD" grid="1" gridSize="10" guides="1" tooltips="1" connect="1" arrows="1" fold="1" page="0" pageScale="1" pageWidth="1169" pageHeight="827" math="0" shadow="0">
      <root>
        <mxCell id="5Vk-0"/>
        <mxCell id="5Vk-1" parent="5Vk-0"/>
        <mxCell id="5Vk-10" parent="5Vk-1" value="statuesque" style="whiteSpace=wrap;html=1;aspect=fixed;;fillColor=#CCE5FF;strokeColor=#36393D;fontColor=#333333;" vertex="1">
          <mxGeometry x="100" y="100" width="160" height="160" as="geometry"/>
        </mxCell>
        <mxCell id="5Vk-11" parent="5Vk-1" value="outgoing" style="rounded=0;whiteSpace=wrap;html=1;;fillColor=#CDEB8B;strokeColor=#36393D;fontColor=#333333;" vertex="1">
          <mxGeometry x="340" y="100" width="240" height="120" as="geometry"/>
        </mxCell>
        <mxCell id="5Vk-12" parent="5Vk-1" value="encouraging" style="rounded=1;whiteSpace=wrap;html=1;;fillColor=#BAC8D3;strokeColor=#23445D;fontColor=#333333;" vertex="1">
          <mxGeometry x="660" y="100" width="240" height="120" as="geometry"/>
        </mxCell>
        <mxCell id="5Vk-13" parent="5Vk-1" value="" style="ellipse;whiteSpace=wrap;html=1;aspect=fixed;;fillColor=#B0E3E6;strokeColor=#0E8088;fontColor=#333333;" vertex="1">
          <mxGeometry x="100" y="400" width="160" height="160" as="geometry"/>
        </mxCell>
        <mxCell id="5Vk-14" parent="5Vk-1" value="vigorous" style="shape=process;whiteSpace=wrap;html=1;aspect=fixed;backgroundOutline=1;;fillColor=#F9F7ED;strokeColor=#36393D;fontColor=#333333;" vertex="1">
          <mxGeometry x="340" y="400" width="240" height="160" as="geometry"/>
        </mxCell>
        <mxCell id="5Vk-15" parent="5Vk-1" value="" style="ellipse;whiteSpace=wrap;html=1;aspect=fixed;;fillColor=#FFCCCC;strokeColor=#36393D;fontColor=#333333;" vertex="1">
          <mxGeometry x="660" y="400" width="240" height="160" as="geometry"/>
        </mxCell>
        <mxCell id="5Vk-16" parent="5Vk-1" value="vigorous" style="rhombus;whiteSpace=wrap;html=1;;fillColor=#BAC8D3;strokeColor=#23445D;fontColor=#333333;" vertex="1">
          <mxGeometry x="100" y="700" width="160" height="160" as="geometry"/>
        </mxCell>
        <mxCell id="5Vk-17" parent="5Vk-1" value="" style="shape=parallelogram;perimeter=parallelogramPerimeter;whiteSpace=wrap;html=1;fixedSize=1;;fillColor=#FFCCCC;strokeColor=#36393D;fontColor=#333333;" vertex="1">
          <mxGeometry x="340" y="700" width="240" height="120" as="geometry"/>
        </mxCell>
        <mxCell id="5Vk-18" parent="5Vk-1" value="hover" style="shape=hexagon;perimeter=hexagonPerimeter2;whiteSpace=wrap;html=1;fixedSize=1;;fillColor=#CDEB8B;strokeColor=#36393D;fontColor=#333333;" vertex="1">
          <mxGeometry x="660" y="700" width="240" height="160" as="geometry"/>
        </mxCell>
      </root>
    </mxGraphModel>
  </diagram>
  <diagram id="dsz" name="Sketch">
    <mxGraphModel dx="800" dy="583" background="#FFFACD" grid="0" gridSize="10" guides="1" tooltips="1" connect="1" arrows="1" fold="1" page="1" pageScale="1" pageWidth="1169" pageHeight="827" math="0" shadow="0">
      <root>
        <mxCell id="dsz-0"/>
        <mxCell id="dsz-1" parent="dsz-0"/>
        <mxCell id="dsz-19" parent="dsz-1" value="vigorous" style="whiteSpace=wrap;html=1;aspect=fixed;sketch=1;fillColor=#F9F7ED;strokeColor=#36393D;fontColor=#333333;" vertex="1">
          <mxGeometry x="100" y="100" width="160" height="160" as="geometry"/>
        </mxCell>
        <mxCell id="dsz-20" parent="dsz-1" value="" style="rounded=0;whiteSpace=wrap;html=1;sketch=1;fillColor=#BAC8D3;strokeColor=#23445D;fontColor=#333333;" vertex="1">
          <mxGeometry x="340" y="100" width="240" height="120" as="geometry"/>
        </mxCell>
        <mxCell id="dsz-21" parent="dsz-1" value="outgoing" style="rounded=1;whiteSpace=wrap;html=1;sketch=1;fillColor=#FFCC99;strokeColor=#36393D;fontColor=#333333;" vertex="1">
          <mxGeometry x="660" y="100" width="240" height="120" as="geometry"/>
        </mxCell>
        <mxCell id="dsz-22" parent="dsz-1" value="hover" style="ellipse;whiteSpace=wrap;html=1;aspect=fixed;sketch=1;fillColor=#FFFF88;strokeColor=#36393D;fontColor=#333333;" vertex="1">
          <mxGeometry x="100" y="400" width="160" height="160" as="geometry"/>
        </mxCell>
        <mxCell id="dsz-23" parent="dsz-1" value="vigorous" style="shape=process;whiteSpace=wrap;html=1;aspect=fixed;backgroundOutline=1;sketch=1;fillColor=#D0CEE2;strokeColor=#56517E;fontColor=#333333;" vertex="1">
          <mxGeometry x="340" y="400" width="240" height="160" as="geometry"/>
        </mxCell>
        <mxCell id="dsz-24" parent="dsz-1" value="outgoing" style="ellipse;whiteSpace=wrap;html=1;aspect=fixed;sketch=1;fillColor=#FAD9D5;strokeColor=#AE4132;fontColor=#333333;" vertex="1">
          <mxGeometry x="660" y="400" width="240" height="160" as="geometry"/>
        </mxCell>
        <mxCell id="dsz-25" parent="dsz-1" value="encouraging" style="rhombus;whiteSpace=wrap;html=1;sketch=1;fillColor=#F9F7ED;strokeColor=#36393D;fontColor=#333333;" vertex="1">
          <mxGeometry x="100" y="700" width="160" height="160" as="geometry"/>
        </mxCell>
        <mxCell id="dsz-26" parent="dsz-1" value="horses" style="shape=parallelogram;perimeter=parallelogramPerimeter;whiteSpace=wrap;html=1;fixedSize=1;sketch=1;fillColor=#CCE5FF;strokeColor=#36393D;fontColor=#333333;" vertex="1">
          <mxGeometry x="340" y="700" width="240" height="120" as="geometry"/>
        </mxCell>
        <mxCell id="dsz-27" parent="dsz-1" value="" style="shape=hexagon;perimeter=hexagonPerimeter2;whiteSpace=wrap;html=1;fixedSize=1;sketch=1;fillColor=#CCE5FF;strokeColor=#36393D;fontColor=#333333;" vertex="1">
          <mxGeometry x="660" y="700" width="240" height="160" as="geometry"/>
        </mxCell>
      </root>
    </mxGraphModel>
  </diagram>
  <diagram id="Vid" name="Shadow">
    <mxGraphModel dx="800" dy="583" background="#FFFACD" grid="1" gridSize="10" guides="1" tooltips="1" connect="1" arrows="1" fold="1" page="2" pageScale="1" pageWidth="1169" pageHeight="827" math="0" shadow="0">
      <root>
        <mxCell id="Vid-0"/>
        <mxCell id="Vid-1" parent="Vid-0"/>
        <mxCell id="Vid-28" parent="Vid-1" value="horses" style="whiteSpace=wrap;html=1;aspect=fixed;shadow=1;fillColor=#BAC8D3;strokeColor=#23445D;fontColor=#333333;" vertex="1">
          <mxGeometry x="100" y="100" width="160" height="160" as="geometry"/>
        </mxCell>
        <mxCell id="Vid-29" parent="Vid-1" value="umbrella" style="rounded=0;whiteSpace=wrap;html=1;shadow=1;fillColor=#BAC8D3;strokeColor=#23445D;fontColor=#333333;" vertex="1">
          <mxGeometry x="340" y="100" width="240" height="120" as="geometry"/>
        </mxCell>
        <mxCell id="Vid-30" parent="Vid-1" value="humor" style="rounded=1;whiteSpace=wrap;html=1;shadow=1;fillColor=#F9F7ED;strokeColor=#36393D;fontColor=#333333;" vertex="1">
          <mxGeometry x="660" y="100" width="240" height="120" as="geometry"/>
        </mxCell>
        <mxCell id="Vid-31" parent="Vid-1" value="" style="ellipse;whiteSpace=wrap;html=1;aspect=fixed;shadow=1;fillColor=#FFCCCC;strokeColor=#36393D;fontColor=#333333;" vertex="1">
          <mxGeometry x="100" y="400" width="160" height="160" as="geometry"/>
        </mxCell>
        <mxCell id="Vid-32" parent="Vid-1" value="vigorous" style="shape=process;whiteSpace=wrap;html=1;aspect=fixed;backgroundOutline=1;shadow=1;fillColor=#BAC8D3;strokeColor=#23445D;fontColor=#333333;" vertex="1">
          <mxGeometry x="340" y="400" width="240" height="160" as="geometry"/>
        </mxCell>
        <mxCell id="Vid-33" parent="Vid-1" value="" style="ellipse;whiteSpace=wrap;html=1;aspect=fixed;shadow=1;fillColor=#B0E3E6;strokeColor=#0E8088;fontColor=#333333;" vertex="1">
          <mxGeometry x="660" y="400" width="240" height="160" as="geometry"/>
        </mxCell>
        <mxCell id="Vid-34" parent="Vid-1" value="substantial" style="rhombus;whiteSpace=wrap;html=1;shadow=1;fillColor=#F9F7ED;strokeColor=#36393D;fontColor=#333333;" vertex="1">
          <mxGeometry x="100" y="700" width="160" height="160" as="geometry"/>
        </mxCell>
        <mxCell id="Vid-35" parent="Vid-1" value="hover" style="shape=parallelogram;perimeter=parallelogramPerimeter;whiteSpace=wrap;html=1;fixedSize=1;shadow=1;fillColor=#FFFF88;strokeColor=#36393D;fontColor=#333333;" vertex="1">
          <mxGeometry x="340" y="700" width="240" height="120" as="geometry"/>
        </mxCell>
        <mxCell id="Vid-36" parent="Vid-1" value="humor" style="shape=hexagon;perimeter=hexagonPerimeter2;whiteSpace=wrap;html=1;fixedSize=1;shadow=1;fillColor=#B0E3E6;strokeColor=#0E8088;fontColor=#333333;" vertex="1">
          <mxGeometry x="660" y="700" width="240" height="160" as="geometry"/>
        </mxCell>
      </root>
    </mxGraphModel>
  </diagram>
  <diagram id="7Or" name="Sketch+Shadow">
    <mxGraphModel dx="800" dy="583" background="#FFFACD" grid="0" gridSize="10" guides="1" tooltips="1" connect="1" arrows="1" fold="1" page="3" pageScale="1" pageWidth="1169" pageHeight="827" math="0" shadow="0">
      <root>
        <mxCell id="7Or-0"/>
        <mxCell id="7Or-1" parent="7Or-0"/>
        <mxCell id="7Or-37" parent="7Or-1" value="used" style="whiteSpace=wrap;html=1;aspect=fixed;sketch=1;shadow=1;fillColor=#F9F7ED;strokeColor=#36393D;fontColor=#333333;" vertex="1">
          <mxGeometry x="100" y="100" width="160" height="160" as="geometry"/>
        </mxCell>
        <mxCell id="7Or-38" parent="7Or-1" value="umbrella" style="rounded=0;whiteSpace=wrap;html=1;sketch=1;shadow=1;fillColor=#FFCCCC;strokeColor=#36393D;fontColor=#333333;" vertex="1">
          <mxGeometry x="340" y="100" width="240" height="120" as="geometry"/>
        </mxCell>
        <mxCell id="7Or-39" parent="7Or-1" value="encouraging" style="rounded=1;whiteSpace=wrap;html=1;sketch=1;shadow=1;fillColor=#CCE5FF;strokeColor=#36393D;fontColor=#333333;" vertex="1">
          <mxGeometry x="660" y="100" width="240" height="120" as="geometry"/>
        </mxCell>
        <mxCell id="7Or-40" parent="7Or-1" value="vigorous" style="ellipse;whiteSpace=wrap;html=1;aspect=fixed;sketch=1;shadow=1;fillColor=#CCE5FF;strokeColor=#36393D;fontColor=#333333;" vertex="1">
          <mxGeometry x="100" y="400" width="160" height="160" as="geometry"/>
        </mxCell>
        <mxCell id="7Or-41" parent="7Or-1" value="encouraging" style="shape=process;whiteSpace=wrap;html=1;aspect=fixed;backgroundOutline=1;sketch=1;shadow=1;fillColor=#FFFF88;strokeColor=#36393D;fontColor=#333333;" vertex="1">
          <mxGeometry x="340" y="400" width="240" height="160" as="geometry"/>
        </mxCell>
        <mxCell id="7Or-42" parent="7Or-1" value="outgoing" style="ellipse;whiteSpace=wrap;html=1;aspect=fixed;sketch=1;shadow=1;fillColor=#B1DDF0;strokeColor=#10739E;fontColor=#333333;" vertex="1">
          <mxGeometry x="660" y="400" width="240" height="160" as="geometry"/>
        </mxCell>
        <mxCell id="7Or-43" parent="7Or-1" value="horses" style="rhombus;whiteSpace=wrap;html=1;sketch=1;shadow=1;fillColor=#B0E3E6;strokeColor=#0E8088;fontColor=#333333;" vertex="1">
          <mxGeometry x="100" y="700" width="160" height="160" as="geometry"/>
        </mxCell>
        <mxCell id="7Or-44" parent="7Or-1" value="hover" style="shape=parallelogram;perimeter=parallelogramPerimeter;whiteSpace=wrap;html=1;fixedSize=1;sketch=1;shadow=1;fillColor=#FFFF88;strokeColor=#36393D;fontColor=#333333;" vertex="1">
          <mxGeometry x="340" y="700" width="240" height="120" as="geometry"/>
        </mxCell>
        <mxCell id="7Or-45" parent="7Or-1" value="vigorous" style="shape=hexagon;perimeter=hexagonPerimeter2;whiteSpace=wrap;html=1;fixedSize=1;sketch=1;shadow=1;fillColor=#B0E3E6;strokeColor=#0E8088;fontColor=#333333;" vertex="1">
          <mxGeometry x="660" y="700" width="240" height="160" as="geometry"/>
        </mxCell>
      </root>
    </mxGraphModel>
  </diagram>
  <diagram id="OkX" name="Klueless">
    <mxGraphModel dx="800" dy="583" background="#FFFACD" grid="1" gridSize="10" guides="1" tooltips="1" connect="1" arrows="1" fold="1" page="4" pageScale="1" pageWidth="1169" pageHeight="827" math="0" shadow="0">
      <root>
        <mxCell id="OkX-0"/>
        <mxCell id="OkX-1" parent="OkX-0"/>
        <mxCell id="OkX-46" parent="OkX-1" value="" style="whiteSpace=wrap;html=1;aspect=fixed;;fillColor=#CCE5FF;strokeColor=#36393D;fontColor=#333333;" vertex="1">
          <mxGeometry x="100" y="100" width="160" height="160" as="geometry"/>
        </mxCell>
        <mxCell id="OkX-47" parent="OkX-1" value="vigorous" style="rounded=0;whiteSpace=wrap;html=1;;fillColor=#CCE5FF;strokeColor=#36393D;fontColor=#333333;" vertex="1">
          <mxGeometry x="340" y="100" width="240" height="120" as="geometry"/>
        </mxCell>
        <mxCell id="OkX-48" parent="OkX-1" value="horses" style="rounded=1;whiteSpace=wrap;html=1;;fillColor=#BAC8D3;strokeColor=#23445D;fontColor=#333333;" vertex="1">
          <mxGeometry x="660" y="100" width="240" height="120" as="geometry"/>
        </mxCell>
        <mxCell id="OkX-49" parent="OkX-1" value="" style="ellipse;whiteSpace=wrap;html=1;aspect=fixed;;fillColor=#F9F7ED;strokeColor=#36393D;fontColor=#333333;" vertex="1">
          <mxGeometry x="100" y="400" width="160" height="160" as="geometry"/>
        </mxCell>
        <mxCell id="OkX-50" parent="OkX-1" value="" style="shape=process;whiteSpace=wrap;html=1;aspect=fixed;backgroundOutline=1;;fillColor=#FFFF88;strokeColor=#36393D;fontColor=#333333;" vertex="1">
          <mxGeometry x="340" y="400" width="240" height="160" as="geometry"/>
        </mxCell>
        <mxCell id="OkX-51" parent="OkX-1" value="statuesque" style="ellipse;whiteSpace=wrap;html=1;aspect=fixed;;fillColor=#D0CEE2;strokeColor=#56517E;fontColor=#333333;" vertex="1">
          <mxGeometry x="660" y="400" width="240" height="160" as="geometry"/>
        </mxCell>
        <mxCell id="OkX-52" parent="OkX-1" value="" style="rhombus;whiteSpace=wrap;html=1;;fillColor=#FFFF88;strokeColor=#36393D;fontColor=#333333;" vertex="1">
          <mxGeometry x="100" y="700" width="160" height="160" as="geometry"/>
        </mxCell>
        <mxCell id="OkX-53" parent="OkX-1" value="" style="shape=parallelogram;perimeter=parallelogramPerimeter;whiteSpace=wrap;html=1;fixedSize=1;;fillColor=#D0CEE2;strokeColor=#56517E;fontColor=#333333;" vertex="1">
          <mxGeometry x="340" y="700" width="240" height="120" as="geometry"/>
        </mxCell>
        <mxCell id="OkX-54" parent="OkX-1" value="" style="shape=hexagon;perimeter=hexagonPerimeter2;whiteSpace=wrap;html=1;fixedSize=1;;fillColor=#EEEEEE;strokeColor=#36393D;fontColor=#333333;" vertex="1">
          <mxGeometry x="660" y="700" width="240" height="160" as="geometry"/>
        </mxCell>
      </root>
    </mxGraphModel>
  </diagram>
</mxfile>